<?xml version="1.0" encoding="utf-8"?>
<svg width="88" height="44" viewBox="0 0 88 44" fill="none" xmlns="http://www.w3.org/2000/svg">
  <path d="M34 42H10C5.58422 42 2 38.421 2 34V10C2 5.58422 5.57895 2 10 2H34C38.4158 2 42 5.57895 42 10V34C42 38.4158 38.4158 42 34 42Z" fill="#4F8DF7" />
  <path d="M10.8053 25.6893C10.9526 25.4999 11.0263 25.2157 11.0263 24.8472V23.6525L9.3684 24.0314C9.03156 24.1104 8.78946 24.2314 8.64735 24.4104C8.50525 24.5841 8.43684 24.8104 8.43684 25.0841C8.43684 25.3788 8.52632 25.6051 8.7 25.7578C8.87369 25.9104 9.14737 25.9893 9.52105 25.9893H10.0316C10.4052 25.9893 10.6632 25.8946 10.8105 25.7051M6.67894 27.2946C6.2263 26.8314 6 26.1841 6 25.3525C6 24.8367 6.0842 24.4051 6.24735 24.0578C6.41051 23.7104 6.69472 23.4104 7.09998 23.163C7.50525 22.9157 8.07894 22.7157 8.82104 22.563L10.0368 22.3157C10.3105 22.263 10.5158 22.1999 10.6526 22.1367C10.7895 22.0736 10.8842 21.9841 10.9316 21.8841C10.9789 21.7788 11.0053 21.642 11.0053 21.4683C11.0053 21.3051 10.9737 21.1736 10.9053 21.0841C10.8421 20.9893 10.7368 20.9262 10.5947 20.8893C10.4526 20.8525 10.2632 20.8314 10.0211 20.8314H6.44736V19.0578C6.82104 18.9683 7.29999 18.8946 7.89999 18.8367C8.49473 18.7788 9.07894 18.7472 9.64736 18.7472C10.6105 18.7472 11.3737 18.8578 11.9368 19.0841C12.5 19.3104 12.9 19.642 13.1421 20.0841C13.3842 20.5262 13.5053 21.1051 13.5053 21.8157V27.8525H11.5052L11.0473 26.542C10.8526 27.0314 10.5632 27.3999 10.1842 27.642C9.80527 27.8841 9.31053 27.9999 8.7 27.9999C7.81579 27.9999 7.14737 27.7683 6.68947 27.3051" fill="white" />
  <path d="M15.9215 26.9101C15.2268 26.1891 14.8794 25.0049 14.8794 23.3522C14.8794 21.6996 15.2268 20.5312 15.9215 19.8101C16.6162 19.0891 17.6373 18.7259 18.9794 18.7259C19.8215 18.7259 20.5952 18.8259 21.3057 19.0206V20.8101H19.4847C18.8636 20.8101 18.4004 20.8996 18.1057 21.0733C17.811 21.247 17.6215 21.5049 17.5373 21.8417C17.4531 22.1838 17.4162 22.6838 17.4162 23.3522C17.4162 24.0206 17.4583 24.5627 17.5373 24.9101C17.6162 25.2575 17.8057 25.5259 18.1057 25.7049C18.4004 25.8838 18.8583 25.9733 19.4847 25.9733H21.3057V27.6154C20.5531 27.868 19.7741 27.9943 18.9794 27.9943C17.6373 27.9943 16.6162 27.6364 15.9215 26.9101Z" fill="white" />
  <path d="M27.437 20.9685C27.2896 20.8632 27.037 20.8106 26.6738 20.8106H24.9054V19.9264C25.5633 19.1264 26.4107 18.7316 27.4475 18.7316C28.3317 18.7316 29.0001 18.9527 29.4475 19.3948C29.8949 19.8369 30.1212 20.4737 30.1212 21.3053V27.8316H27.6633V21.5685C27.6633 21.2737 27.5896 21.0737 27.4423 20.9685M22.5791 16.4685L25.037 16.0579V27.8316H22.5791V16.4685Z" fill="white" />
  <path d="M32.7732 27.8943C32.3153 27.8312 31.8784 27.7312 31.4626 27.5996V25.9785H35.2995C35.41 25.9785 35.4942 25.9417 35.5521 25.8733C35.61 25.7996 35.6416 25.6891 35.6416 25.5364C35.6416 25.4259 35.6206 25.3417 35.5837 25.2733C35.5469 25.2101 35.4732 25.1312 35.3627 25.0417C35.2521 24.9522 35.1101 24.8628 34.9364 24.7628L33.0837 23.7154C32.5364 23.4101 32.1416 23.0522 31.9048 22.6417C31.6627 22.2312 31.5416 21.747 31.5416 21.1891C31.5416 20.4259 31.8258 19.8206 32.4048 19.3838C32.9785 18.947 33.7627 18.7259 34.7574 18.7259C35.7521 18.7259 36.6311 18.8891 37.4943 19.2154V20.8049H34.1679C34.0363 20.8049 33.9416 20.8312 33.889 20.8785C33.8363 20.9259 33.8048 21.0049 33.8048 21.1154C33.8048 21.247 33.8206 21.3417 33.8521 21.3996C33.8837 21.4627 33.9627 21.5312 34.0838 21.6049L36.4943 22.9154C37.0311 23.1996 37.41 23.5049 37.6416 23.8312C37.8732 24.1575 37.9837 24.6312 37.9837 25.2417C37.9837 26.1943 37.6785 26.8891 37.0732 27.3259C36.4679 27.7627 35.5732 27.9838 34.3943 27.9838C33.7732 27.9838 33.2311 27.9522 32.7732 27.8838" fill="white" />
  <path d="M49.2223 27.9199C48.7953 27.8718 48.3897 27.7917 48 27.6849V26.4459H51.1973C51.6777 26.4459 52.014 26.3818 52.2115 26.2483C52.4089 26.1202 52.505 25.9065 52.505 25.6128C52.505 25.4473 52.473 25.3137 52.4143 25.2069C52.3556 25.1001 52.2488 24.988 52.094 24.8705C51.9392 24.7583 51.7257 24.6141 51.4428 24.4379L49.6814 23.4392C49.1369 23.1242 48.7366 22.777 48.4804 22.4032C48.2242 22.0294 48.096 21.5594 48.096 21.0093C48.096 20.2991 48.3629 19.749 48.8967 19.3592C49.4305 18.9693 50.2045 18.7717 51.2133 18.7717C52.1154 18.7717 52.9587 18.8892 53.7434 19.1295V20.3525H50.498C50.2258 20.3525 50.0336 20.4059 49.9162 20.518C49.8041 20.6248 49.7454 20.7851 49.7454 20.9933C49.7454 21.2016 49.7935 21.3565 49.8842 21.4686C49.975 21.5754 50.1511 21.7089 50.4127 21.8585L52.3556 22.9372C53.0602 23.3164 53.5512 23.6903 53.8181 24.0481C54.085 24.4059 54.2184 24.8651 54.2184 25.4206C54.2184 26.3231 53.9302 26.98 53.343 27.3859C52.7612 27.7917 51.8858 28 50.7222 28C50.1457 28 49.644 27.9733 49.2223 27.9252" fill="#4F8DF7" />
  <path d="M60.4527 25.992C60.7143 25.6929 60.8423 25.2336 60.8423 24.6142V23.3912L58.5418 23.8665C58.0935 23.9519 57.7732 24.1015 57.581 24.3151C57.3835 24.5287 57.2875 24.8118 57.2875 25.1696C57.2875 25.5861 57.4049 25.9012 57.6397 26.1148C57.8746 26.3338 58.2376 26.4406 58.7233 26.4406H59.1663C59.7641 26.4406 60.1965 26.291 60.458 25.992M56.2039 27.2844C55.7182 26.8198 55.478 26.1789 55.478 25.3511C55.478 24.8385 55.5634 24.4112 55.7395 24.0587C55.9157 23.7116 56.1986 23.4179 56.5989 23.1776C56.9939 22.9372 57.5277 22.7503 58.1895 22.6222L59.7908 22.3284C60.0844 22.275 60.3032 22.2109 60.4527 22.1415C60.6022 22.0721 60.6983 21.9706 60.7463 21.8371C60.7943 21.7089 60.821 21.5274 60.821 21.2977C60.821 21.0574 60.773 20.8705 60.6823 20.7423C60.5915 20.6142 60.426 20.5127 60.1858 20.4486C59.9456 20.3845 59.604 20.3525 59.1557 20.3525H55.9584V19.0441C56.316 18.9693 56.7857 18.9052 57.3728 18.8465C57.9547 18.793 58.5205 18.7663 59.0649 18.7663C59.967 18.7663 60.6822 18.8625 61.2053 19.0547C61.7284 19.247 62.1021 19.5247 62.3316 19.8985C62.5611 20.267 62.6732 20.753 62.6732 21.3511V27.8344H61.3495L60.8584 26.6916C60.6822 27.0921 60.3834 27.4072 59.9617 27.6369C59.5347 27.8665 59.0062 27.9786 58.3604 27.9786C57.4156 27.9786 56.7003 27.749 56.2146 27.2844" fill="#4F8DF7" />
  <path d="M76.124 27.7223H74.3092V18.8198H76.124V27.7223ZM71.128 26.0881C71.3788 26.2323 71.7792 26.3017 72.3343 26.3017C73.1083 26.3017 73.7915 26.2483 74.3893 26.1362V26.7717C73.7701 27.514 72.8841 27.8825 71.7311 27.8825C70.8184 27.8825 70.1245 27.6849 69.6494 27.2844C69.1743 26.8892 68.9395 26.2857 68.9395 25.4793V18.8144H70.7543V25.2977C70.7543 25.6769 70.8771 25.9386 71.128 26.0828" fill="#4F8DF7" />
  <path d="M83.5008 24.721V20.1495H82.145C81.4724 20.1495 80.9547 20.2296 80.5917 20.3952C80.2341 20.5554 79.9832 20.8278 79.8391 21.2016C79.695 21.5754 79.6256 22.1148 79.6256 22.8091V23.4927C79.6256 24.2136 79.6896 24.769 79.8124 25.1696C79.9352 25.5648 80.138 25.8478 80.4156 26.0187C80.6931 26.1896 81.0775 26.2697 81.5685 26.2697H82.0276C83.0044 26.2697 83.4954 25.7517 83.4954 24.7156M78.6648 26.7984C78.067 26.0614 77.7681 24.8758 77.7681 23.231C77.7681 20.1816 78.9584 18.6596 81.3443 18.6596C82.3905 18.6596 83.1325 18.8678 83.5809 19.279V16.2884H85.2942V27.7223H83.9545L83.4954 26.4139C83.2979 26.9159 83.0204 27.2897 82.6627 27.5354C82.3051 27.781 81.7927 27.9039 81.1255 27.9039C80.0793 27.9039 79.2573 27.5354 78.6595 26.8037" fill="#4F8DF7" />
  <path d="M64.9417 16.3258L66.7352 16V27.7223H64.9417V16.3258Z" fill="#4F8DF7" />
</svg>
